<svg width="3840" height="2160" viewBox="0 0 3840 2160" xmlns="http://www.w3.org/2000/svg">
  <defs>
    <!-- Gradients for sky and lighting -->
    <linearGradient id="skyGradient" x1="0%" y1="0%" x2="0%" y2="100%">
      <stop offset="0%" style="stop-color:#FFE4B5;stop-opacity:1" />
      <stop offset="30%" style="stop-color:#FFF8DC;stop-opacity:1" />
      <stop offset="70%" style="stop-color:#E6F3FF;stop-opacity:1" />
      <stop offset="100%" style="stop-color:#B0E0E6;stop-opacity:1" />
    </linearGradient>
    
    <!-- Mountain gradients -->
    <linearGradient id="mountainGradient1" x1="0%" y1="0%" x2="100%" y2="100%">
      <stop offset="0%" style="stop-color:#2D5016;stop-opacity:1" />
      <stop offset="50%" style="stop-color:#4A7C59;stop-opacity:1" />
      <stop offset="100%" style="stop-color:#1B3A0F;stop-opacity:1" />
    </linearGradient>
    
    <linearGradient id="mountainGradient2" x1="0%" y1="0%" x2="100%" y2="100%">
      <stop offset="0%" style="stop-color:#3A5F2A;stop-opacity:0.8" />
      <stop offset="100%" style="stop-color:#2D4A1F;stop-opacity:0.9" />
    </linearGradient>
    
    <!-- Mist and fog effects -->
    <radialGradient id="mistGradient" cx="50%" cy="50%" r="50%">
      <stop offset="0%" style="stop-color:#FFFFFF;stop-opacity:0.6" />
      <stop offset="70%" style="stop-color:#F0F8FF;stop-opacity:0.3" />
      <stop offset="100%" style="stop-color:#FFFFFF;stop-opacity:0" />
    </radialGradient>
    
    <!-- Volumetric light rays -->
    <linearGradient id="lightRay" x1="0%" y1="0%" x2="100%" y2="100%">
      <stop offset="0%" style="stop-color:#FFE4B5;stop-opacity:0.4" />
      <stop offset="50%" style="stop-color:#FFF8DC;stop-opacity:0.2" />
      <stop offset="100%" style="stop-color:#FFFFFF;stop-opacity:0" />
    </linearGradient>
    
    <!-- House and structure gradients -->
    <linearGradient id="houseGradient" x1="0%" y1="0%" x2="100%" y2="100%">
      <stop offset="0%" style="stop-color:#8B4513;stop-opacity:1" />
      <stop offset="100%" style="stop-color:#654321;stop-opacity:1" />
    </linearGradient>
    
    <!-- Safety sign gradient -->
    <linearGradient id="signGradient" x1="0%" y1="0%" x2="100%" y2="100%">
      <stop offset="0%" style="stop-color:#10B981;stop-opacity:1" />
      <stop offset="100%" style="stop-color:#059669;stop-opacity:1" />
    </linearGradient>
    
    <!-- Filters for 3D effects -->
    <filter id="shadow" x="-50%" y="-50%" width="200%" height="200%">
      <feDropShadow dx="3" dy="6" stdDeviation="4" flood-color="#000000" flood-opacity="0.3"/>
    </filter>
    
    <filter id="blur" x="-50%" y="-50%" width="200%" height="200%">
      <feGaussianBlur stdDeviation="2"/>
    </filter>
  </defs>
  
  <!-- Sky background -->
  <rect width="3840" height="2160" fill="url(#skyGradient)"/>
  
  <!-- Far mountains (background) -->
  <path d="M0 800 Q400 600 800 700 T1600 650 Q2000 600 2400 680 T3200 720 Q3600 700 3840 750 L3840 2160 L0 2160 Z" 
        fill="url(#mountainGradient2)" opacity="0.6" filter="url(#blur)"/>
  
  <!-- Mid mountains -->
  <path d="M0 900 Q300 750 600 800 T1200 780 Q1600 720 2000 790 T2800 820 Q3200 800 3840 850 L3840 2160 L0 2160 Z" 
        fill="url(#mountainGradient1)" opacity="0.8"/>
  
  <!-- Volumetric light rays from sun -->
  <g opacity="0.3">
    <path d="M3200 200 L2800 1000 L3000 1000 L3400 200 Z" fill="url(#lightRay)"/>
    <path d="M3300 150 L2900 950 L3100 950 L3500 150 Z" fill="url(#lightRay)"/>
    <path d="M3400 180 L3000 980 L3200 980 L3600 180 Z" fill="url(#lightRay)"/>
  </g>
  
  <!-- Valley floor and foreground -->
  <ellipse cx="1920" cy="1600" rx="1800" ry="400" fill="#4A7C59" opacity="0.9"/>
  <ellipse cx="1920" cy="1650" rx="1600" ry="350" fill="#5A8B3A" opacity="0.8"/>
  
  <!-- Trees and forest -->
  <g opacity="0.7">
    <!-- Background trees -->
    <circle cx="500" cy="1200" r="80" fill="#2D5016"/>
    <circle cx="600" cy="1180" r="90" fill="#3A5F2A"/>
    <circle cx="700" cy="1220" r="75" fill="#2D5016"/>
    <circle cx="3200" cy="1100" r="100" fill="#3A5F2A"/>
    <circle cx="3300" cy="1150" r="85" fill="#2D5016"/>
    
    <!-- Mid-ground trees -->
    <circle cx="1200" cy="1300" r="60" fill="#4A7C59"/>
    <circle cx="1350" cy="1280" r="70" fill="#3A5F2A"/>
    <circle cx="2600" cy="1250" r="65" fill="#4A7C59"/>
  </g>
  
  <!-- Mist layers -->
  <ellipse cx="1000" cy="1100" rx="600" ry="200" fill="url(#mistGradient)" opacity="0.6"/>
  <ellipse cx="2800" cy="1000" rx="500" ry="150" fill="url(#mistGradient)" opacity="0.5"/>
  <ellipse cx="1920" cy="1200" rx="800" ry="250" fill="url(#mistGradient)" opacity="0.4"/>
  
  <!-- Traditional H'Mong house -->
  <g transform="translate(1600, 1400)">
    <!-- House base -->
    <rect x="0" y="50" width="200" height="120" fill="url(#houseGradient)" filter="url(#shadow)"/>
    <!-- Roof -->
    <path d="M-20 50 L100 10 L220 50 L200 70 L0 70 Z" fill="#8B4513"/>
    <!-- Door -->
    <rect x="80" y="100" width="40" height="70" fill="#654321"/>
    <!-- Windows -->
    <rect x="30" y="80" width="25" height="25" fill="#FFE4B5" opacity="0.8"/>
    <rect x="145" y="80" width="25" height="25" fill="#FFE4B5" opacity="0.8"/>
    <!-- Chimney smoke -->
    <path d="M160 10 Q165 0 170 -10 Q175 -20 180 -30" stroke="#E0E0E0" stroke-width="3" fill="none" opacity="0.6"/>
  </g>
  
  <!-- H'Mong family figures -->
  <g transform="translate(1400, 1500)">
    <!-- Father figure -->
    <g transform="translate(0, 0)">
      <circle cx="0" cy="-30" r="15" fill="#D2B48C"/> <!-- Head -->
      <rect x="-12" y="-15" width="24" height="40" fill="#4169E1" rx="3"/> <!-- Traditional shirt -->
      <rect x="-10" y="25" width="20" height="35" fill="#2F4F4F" rx="2"/> <!-- Pants -->
      <circle cx="-8" cy="-25" r="2" fill="#000"/> <!-- Eye -->
      <circle cx="8" cy="-25" r="2" fill="#000"/> <!-- Eye -->
      <path d="M-6 -20 Q0 -15 6 -20" stroke="#000" stroke-width="1" fill="none"/> <!-- Smile -->
    </g>
    
    <!-- Mother figure -->
    <g transform="translate(40, 0)">
      <circle cx="0" cy="-30" r="15" fill="#D2B48C"/> <!-- Head -->
      <rect x="-15" y="-15" width="30" height="50" fill="#DC143C" rx="3"/> <!-- Traditional dress -->
      <circle cx="-8" cy="-25" r="2" fill="#000"/> <!-- Eye -->
      <circle cx="8" cy="-25" r="2" fill="#000"/> <!-- Eye -->
      <path d="M-6 -20 Q0 -15 6 -20" stroke="#000" stroke-width="1" fill="none"/> <!-- Smile -->
      <!-- Traditional headwrap -->
      <path d="M-15 -35 Q0 -45 15 -35 Q10 -40 0 -40 Q-10 -40 -15 -35" fill="#4169E1"/>
    </g>
    
    <!-- Child figure -->
    <g transform="translate(20, 20)">
      <circle cx="0" cy="-20" r="10" fill="#D2B48C"/> <!-- Head -->
      <rect x="-8" y="-10" width="16" height="25" fill="#32CD32" rx="2"/> <!-- Child shirt -->
      <rect x="-6" y="15" width="12" height="20" fill="#2F4F4F" rx="1"/> <!-- Shorts -->
      <circle cx="-5" cy="-17" r="1.5" fill="#000"/> <!-- Eye -->
      <circle cx="5" cy="-17" r="1.5" fill="#000"/> <!-- Eye -->
      <path d="M-4 -13 Q0 -10 4 -13" stroke="#000" stroke-width="0.8" fill="none"/> <!-- Smile -->
    </g>
  </g>
  
  <!-- Safety center sign -->
  <g transform="translate(1200, 1350)">
    <!-- Sign post -->
    <rect x="0" y="0" width="8" height="100" fill="#8B4513" filter="url(#shadow)"/>
    <!-- Sign board -->
    <rect x="-60" y="20" width="120" height="40" fill="url(#signGradient)" rx="5" filter="url(#shadow)"/>
    <!-- Sign text (represented as small rectangles for text areas) -->
    <rect x="-50" y="28" width="100" height="6" fill="#FFFFFF" opacity="0.9" rx="1"/>
    <rect x="-40" y="38" width="80" height="4" fill="#FFFFFF" opacity="0.8" rx="1"/>
    <rect x="-35" y="46" width="70" height="4" fill="#FFFFFF" opacity="0.8" rx="1"/>
  </g>
  
  <!-- Rescue station in distance -->
  <g transform="translate(2800, 1200)" opacity="0.6">
    <!-- Small building -->
    <rect x="0" y="20" width="60" height="40" fill="#DC143C"/>
    <path d="M-5 20 L30 5 L65 20 L60 30 L0 30 Z" fill="#8B0000"/>
    <!-- Cross symbol -->
    <rect x="25" y="10" width="4" height="12" fill="#FFFFFF"/>
    <rect x="21" y="14" width="12" height="4" fill="#FFFFFF"/>
  </g>
  
  <!-- Mountain trail -->
  <path d="M1000 1600 Q1200 1550 1400 1580 T1800 1600 Q2000 1620 2200 1600 T2600 1580" 
        stroke="#8B7355" stroke-width="12" fill="none" opacity="0.7"/>
  
  <!-- Additional mist effects for depth -->
  <ellipse cx="800" cy="1300" rx="400" ry="100" fill="url(#mistGradient)" opacity="0.3"/>
  <ellipse cx="3000" cy="1150" rx="350" ry="80" fill="url(#mistGradient)" opacity="0.4"/>
  
  <!-- Floating clouds on mountain peaks -->
  <g opacity="0.5">
    <ellipse cx="600" cy="700" rx="100" ry="30" fill="#FFFFFF"/>
    <ellipse cx="580" cy="690" rx="80" ry="25" fill="#F0F8FF"/>
    <ellipse cx="620" cy="695" rx="90" ry="28" fill="#FFFFFF"/>
    
    <ellipse cx="3200" cy="600" rx="120" ry="35" fill="#FFFFFF"/>
    <ellipse cx="3180" cy="590" rx="100" ry="30" fill="#F0F8FF"/>
    <ellipse cx="3220" cy="595" rx="110" ry="32" fill="#FFFFFF"/>
  </g>
  
  <!-- Subtle sun disk -->
  <circle cx="3400" cy="300" r="80" fill="#FFE4B5" opacity="0.8" filter="url(#blur)"/>
  <circle cx="3400" cy="300" r="60" fill="#FFF8DC" opacity="0.6"/>
  
  <!-- Additional atmospheric particles -->
  <g opacity="0.2">
    <circle cx="1500" cy="800" r="2" fill="#FFFFFF"/>
    <circle cx="2200" cy="900" r="1.5" fill="#FFFFFF"/>
    <circle cx="1800" cy="1000" r="2.5" fill="#FFFFFF"/>
    <circle cx="2600" cy="850" r="2" fill="#FFFFFF"/>
    <circle cx="1300" cy="950" r="1.8" fill="#FFFFFF"/>
  </g>
</svg>