<svg width="100" height="100" viewBox="0 0 100 100" xmlns="http://www.w3.org/2000/svg">
  <defs>
    <pattern id="mountainPattern" x="0" y="0" width="50" height="50" patternUnits="userSpaceOnUse">
      <!-- Mountain silhouette pattern -->
      <path d="M0 40 L10 25 L20 35 L30 20 L40 30 L50 15 L50 50 L0 50 Z" 
            fill="currentColor" 
            opacity="0.1"/>
      <path d="M25 50 L35 35 L45 40 L50 30 L50 50 Z" 
            fill="currentColor" 
            opacity="0.05"/>
    </pattern>
  </defs>
  
  <!-- Background with mountain pattern -->
  <rect width="100" height="100" fill="url(#mountainPattern)"/>
  
  <!-- Additional mountain shapes for depth -->
  <path d="M0 70 L15 50 L30 60 L45 45 L60 55 L75 40 L90 50 L100 45 L100 100 L0 100 Z" 
        fill="currentColor" 
        opacity="0.03"/>
  
  <!-- Cloud-like shapes -->
  <circle cx="20" cy="20" r="8" fill="currentColor" opacity="0.02"/>
  <circle cx="80" cy="25" r="6" fill="currentColor" opacity="0.02"/>
  <circle cx="50" cy="15" r="5" fill="currentColor" opacity="0.02"/>
</svg>