<svg viewBox="0 0 3840 2160" xmlns="http://www.w3.org/2000/svg">
  <defs>
    <!-- Warm interior lighting gradients -->
    <radialGradient id="warmLight" cx="50%" cy="30%" r="70%">
      <stop offset="0%" style="stop-color:#FFF8DC;stop-opacity:1" />
      <stop offset="40%" style="stop-color:#F4A460;stop-opacity:0.8" />
      <stop offset="80%" style="stop-color:#D2691E;stop-opacity:0.6" />
      <stop offset="100%" style="stop-color:#8B4513;stop-opacity:0.4" />
    </radialGradient>
    
    <!-- Wood texture gradients -->
    <linearGradient id="woodGradient" x1="0%" y1="0%" x2="0%" y2="100%">
      <stop offset="0%" style="stop-color:#DEB887;stop-opacity:1" />
      <stop offset="30%" style="stop-color:#CD853F;stop-opacity:1" />
      <stop offset="70%" style="stop-color:#A0522D;stop-opacity:1" />
      <stop offset="100%" style="stop-color:#8B4513;stop-opacity:1" />
    </linearGradient>
    
    <linearGradient id="darkWood" x1="0%" y1="0%" x2="0%" y2="100%">
      <stop offset="0%" style="stop-color:#A0522D;stop-opacity:1" />
      <stop offset="50%" style="stop-color:#8B4513;stop-opacity:1" />
      <stop offset="100%" style="stop-color:#654321;stop-opacity:1" />
    </linearGradient>
    
    <!-- Table surface gradient -->
    <linearGradient id="tableGradient" x1="0%" y1="0%" x2="0%" y2="100%">
      <stop offset="0%" style="stop-color:#F5DEB3;stop-opacity:1" />
      <stop offset="50%" style="stop-color:#DEB887;stop-opacity:1" />
      <stop offset="100%" style="stop-color:#D2B48C;stop-opacity:1" />
    </linearGradient>
    
    <!-- Food gradients -->
    <radialGradient id="steamGradient" cx="50%" cy="50%" r="50%">
      <stop offset="0%" style="stop-color:#FFFFFF;stop-opacity:0.8" />
      <stop offset="70%" style="stop-color:#F0F8FF;stop-opacity:0.4" />
      <stop offset="100%" style="stop-color:#E6E6FA;stop-opacity:0" />
    </radialGradient>
    
    <linearGradient id="bowlGradient" x1="0%" y1="0%" x2="0%" y2="100%">
      <stop offset="0%" style="stop-color:#F5F5DC;stop-opacity:1" />
      <stop offset="50%" style="stop-color:#DDBEA9;stop-opacity:1" />
      <stop offset="100%" style="stop-color:#CB997E;stop-opacity:1" />
    </linearGradient>
    
    <!-- Fire/cooking gradient -->
    <radialGradient id="fireGradient" cx="50%" cy="80%" r="60%">
      <stop offset="0%" style="stop-color:#FFD700;stop-opacity:1" />
      <stop offset="30%" style="stop-color:#FF8C00;stop-opacity:0.8" />
      <stop offset="60%" style="stop-color:#FF4500;stop-opacity:0.6" />
      <stop offset="100%" style="stop-color:#DC143C;stop-opacity:0.2" />
    </radialGradient>
    
    <!-- Filters for depth and warmth -->
    <filter id="warmGlow" x="-50%" y="-50%" width="200%" height="200%">
      <feGaussianBlur in="SourceGraphic" stdDeviation="3"/>
      <feColorMatrix values="1.2 0.3 0.1 0 0
                             0.3 1.1 0.2 0 0
                             0.1 0.2 0.8 0 0
                             0 0 0 1 0"/>
    </filter>
    
    <filter id="softShadow" x="-50%" y="-50%" width="200%" height="200%">
      <feDropShadow dx="2" dy="4" stdDeviation="3" flood-color="#654321" flood-opacity="0.3"/>
    </filter>
  </defs>
  
  <!-- Background - warm interior -->
  <rect width="3840" height="2160" fill="url(#warmLight)"/>
  
  <!-- Back wall with wood paneling -->
  <rect x="0" y="0" width="3840" height="1200" fill="url(#darkWood)"/>
  
  <!-- Wood panel lines for texture -->
  <g stroke="#654321" stroke-width="4" opacity="0.6">
    <line x1="0" y1="200" x2="3840" y2="200"/>
    <line x1="0" y1="400" x2="3840" y2="400"/>
    <line x1="0" y1="600" x2="3840" y2="600"/>
    <line x1="0" y1="800" x2="3840" y2="800"/>
    <line x1="0" y1="1000" x2="3840" y2="1000"/>
  </g>
  
  <!-- Floor -->
  <rect x="0" y="1200" width="3840" height="960" fill="url(#woodGradient)"/>
  
  <!-- Floor planks -->
  <g stroke="#8B4513" stroke-width="3" opacity="0.4">
    <line x1="0" y1="1300" x2="3840" y2="1350"/>
    <line x1="0" y1="1450" x2="3840" y2="1500"/>
    <line x1="0" y1="1600" x2="3840" y2="1650"/>
    <line x1="0" y1="1750" x2="3840" y2="1800"/>
    <line x1="0" y1="1900" x2="3840" y2="1950"/>
  </g>
  
  <!-- Traditional wooden table (perspective view) -->
  <path d="M800,1400 L3200,1300 L3000,1800 L600,1900 Z" fill="url(#tableGradient)" filter="url(#softShadow)"/>
  
  <!-- Table legs -->
  <rect x="850" y="1400" width="60" height="400" fill="url(#darkWood)" transform="skewX(-5)"/>
  <rect x="3100" y="1300" width="60" height="400" fill="url(#darkWood)" transform="skewX(-5)"/>
  <rect x="650" y="1500" width="60" height="400" fill="url(#darkWood)" transform="skewX(-5)"/>
  <rect x="2950" y="1400" width="60" height="400" fill="url(#darkWood)" transform="skewX(-5)"/>
  
  <!-- Traditional H'Mông dishes on table -->
  
  <!-- Large central pot/bowl -->
  <ellipse cx="1900" cy="1500" rx="200" ry="80" fill="url(#bowlGradient)" filter="url(#softShadow)"/>
  <ellipse cx="1900" cy="1480" rx="180" ry="60" fill="#8B4513"/>
  <ellipse cx="1900" cy="1470" rx="160" ry="50" fill="#A0522D"/>
  
  <!-- Steam from hot pot -->
  <g opacity="0.6">
    <ellipse cx="1900" cy="1400" rx="40" ry="80" fill="url(#steamGradient)"/>
    <ellipse cx="1920" cy="1380" rx="30" ry="60" fill="url(#steamGradient)"/>
    <ellipse cx="1880" cy="1390" rx="35" ry="70" fill="url(#steamGradient)"/>
  </g>
  
  <!-- Smaller bowls around the main dish -->
  <ellipse cx="1400" cy="1450" rx="80" ry="30" fill="url(#bowlGradient)"/>
  <ellipse cx="1400" cy="1440" rx="70" ry="25" fill="#CD853F"/>
  
  <ellipse cx="2400" cy="1420" rx="90" ry="35" fill="url(#bowlGradient)"/>
  <ellipse cx="2400" cy="1410" rx="80" ry="30" fill="#CD853F"/>
  
  <ellipse cx="1600" cy="1600" rx="70" ry="25" fill="url(#bowlGradient)"/>
  <ellipse cx="1600" cy="1590" rx="60" ry="20" fill="#CD853F"/>
  
  <ellipse cx="2200" cy="1580" rx="85" ry="32" fill="url(#bowlGradient)"/>
  <ellipse cx="2200" cy="1570" rx="75" ry="27" fill="#CD853F"/>
  
  <!-- Traditional bamboo steamers -->
  <g transform="translate(1200,1350)">
    <ellipse cx="0" cy="0" rx="120" ry="40" fill="#DEB887"/>
    <ellipse cx="0" cy="-10" rx="110" ry="35" fill="#CD853F"/>
    <!-- Bamboo weave pattern -->
    <g stroke="#8B4513" stroke-width="2" opacity="0.6">
      <line x1="-100" y1="-20" x2="100" y2="-20"/>
      <line x1="-100" y1="0" x2="100" y2="0"/>
      <line x1="-100" y1="20" x2="100" y2="20"/>
      <line x1="-80" y1="-30" x2="-80" y2="30"/>
      <line x1="-40" y1="-30" x2="-40" y2="30"/>
      <line x1="0" y1="-30" x2="0" y2="30"/>
      <line x1="40" y1="-30" x2="40" y2="30"/>
      <line x1="80" y1="-30" x2="80" y2="30"/>
    </g>
  </g>
  
  <!-- Traditional clay pots -->
  <g transform="translate(2600,1380)">
    <ellipse cx="0" cy="20" rx="60" ry="20" fill="#8B4513"/>
    <path d="M-50,20 Q-50,0 -40,-10 L40,-10 Q50,0 50,20" fill="url(#bowlGradient)"/>
    <ellipse cx="0" cy="-10" rx="40" ry="15" fill="#A0522D"/>
  </g>
  
  <!-- Wooden chopsticks and utensils -->
  <g stroke="#8B4513" stroke-width="4" opacity="0.8">
    <line x1="1350" y1="1480" x2="1450" y2="1460"/>
    <line x1="1360" y1="1490" x2="1460" y2="1470"/>
    <line x1="2350" y1="1450" x2="2450" y2="1430"/>
    <line x1="2360" y1="1460" x2="2460" y2="1440"/>
  </g>
  
  <!-- Traditional wooden spoons -->
  <ellipse cx="1500" cy="1520" rx="15" ry="8" fill="#CD853F"/>
  <rect x="1485" y="1530" width="6" height="40" fill="#8B4513"/>
  
  <ellipse cx="2300" cy="1500" rx="15" ry="8" fill="#CD853F"/>
  <rect x="2285" y="1510" width="6" height="40" fill="#8B4513"/>
  
  <!-- Hanging traditional items on wall -->
  <g transform="translate(500,400)">
    <!-- Woven basket -->
    <ellipse cx="0" cy="0" rx="80" ry="100" fill="#DEB887"/>
    <ellipse cx="0" cy="-10" rx="70" ry="90" fill="#CD853F"/>
    <g stroke="#8B4513" stroke-width="2" opacity="0.5">
      <line x1="-60" y1="-80" x2="60" y2="-80"/>
      <line x1="-60" y1="-40" x2="60" y2="-40"/>
      <line x1="-60" y1="0" x2="60" y2="0"/>
      <line x1="-60" y1="40" x2="60" y2="40"/>
      <line x1="-60" y1="80" x2="60" y2="80"/>
    </g>
  </g>
  
  <g transform="translate(3200,500)">
    <!-- Traditional gourd -->
    <ellipse cx="0" cy="0" rx="60" ry="80" fill="#F4A460"/>
    <ellipse cx="0" cy="-20" rx="30" ry="40" fill="#DEB887"/>
    <rect x="-5" y="-60" width="10" height="20" fill="#8B4513"/>
  </g>
  
  <!-- Fireplace/cooking area in background -->
  <rect x="200" y="800" width="400" height="300" fill="url(#darkWood)" rx="20"/>
  <rect x="220" y="820" width="360" height="260" fill="#2F1B14"/>
  
  <!-- Fire glow -->
  <ellipse cx="400" cy="1000" rx="150" ry="80" fill="url(#fireGradient)" opacity="0.8"/>
  
  <!-- Cooking pot over fire -->
  <ellipse cx="400" cy="950" rx="80" ry="30" fill="#2F1B14"/>
  <path d="M320,950 Q320,920 340,910 L460,910 Q480,920 480,950" fill="url(#bowlGradient)"/>
  
  <!-- Warm lighting effects -->
  <circle cx="1920" cy="800" r="300" fill="#FFE4B5" opacity="0.2" filter="url(#warmGlow)"/>
  <circle cx="400" cy="900" r="200" fill="#FF8C00" opacity="0.3" filter="url(#warmGlow)"/>
  
  <!-- Atmospheric depth with warm overlay -->
  <rect width="3840" height="2160" fill="url(#warmLight)" opacity="0.1"/>
  
  <!-- Traditional decorative elements -->
  <g transform="translate(1000,200)" opacity="0.6">
    <!-- Traditional H'Mông pattern -->
    <rect x="0" y="0" width="200" height="100" fill="#8B4513" rx="10"/>
    <g stroke="#DEB887" stroke-width="3" fill="none">
      <path d="M20,20 Q50,10 80,20 Q110,30 140,20 Q170,10 180,20"/>
      <path d="M20,50 Q50,40 80,50 Q110,60 140,50 Q170,40 180,50"/>
      <path d="M20,80 Q50,70 80,80 Q110,90 140,80 Q170,70 180,80"/>
    </g>
  </g>
</svg>