<svg viewBox="0 0 400 300" xmlns="http://www.w3.org/2000/svg">
  <defs>
    <linearGradient id="skyGradient" x1="0%" y1="0%" x2="0%" y2="100%">
      <stop offset="0%" style="stop-color:#FFB366;stop-opacity:1" />
      <stop offset="30%" style="stop-color:#FFA726;stop-opacity:1" />
      <stop offset="70%" style="stop-color:#FF8A65;stop-opacity:1" />
      <stop offset="100%" style="stop-color:#FFAB91;stop-opacity:1" />
    </linearGradient>
    <linearGradient id="mountainGradient" x1="0%" y1="0%" x2="0%" y2="100%">
      <stop offset="0%" style="stop-color:#2E7D32;stop-opacity:1" />
      <stop offset="100%" style="stop-color:#1B5E20;stop-opacity:1" />
    </linearGradient>
    <linearGradient id="cloudGradient" x1="0%" y1="0%" x2="0%" y2="100%">
      <stop offset="0%" style="stop-color:#FFFFFF;stop-opacity:0.9" />
      <stop offset="100%" style="stop-color:#F5F5F5;stop-opacity:0.7" />
    </linearGradient>
  </defs>
  
  <!-- Sky background -->
  <rect width="400" height="300" fill="url(#skyGradient)"/>
  
  <!-- Sun -->
  <circle cx="320" cy="60" r="25" fill="#FFD54F" opacity="0.8"/>
  <circle cx="320" cy="60" r="30" fill="#FFF176" opacity="0.3"/>
  
  <!-- Distant mountains -->
  <path d="M0,180 Q100,160 200,170 Q300,165 400,175 L400,300 L0,300 Z" fill="#388E3C" opacity="0.6"/>
  <path d="M0,200 Q150,185 300,190 Q350,188 400,195 L400,300 L0,300 Z" fill="#2E7D32" opacity="0.7"/>
  
  <!-- Main mountain peak -->
  <path d="M150,300 L200,120 L250,300 Z" fill="url(#mountainGradient)"/>
  <path d="M180,300 L200,140 L220,300 Z" fill="#1B5E20"/>
  
  <!-- Cloud sea -->
  <ellipse cx="100" cy="220" rx="80" ry="25" fill="url(#cloudGradient)"/>
  <ellipse cx="180" cy="230" rx="90" ry="30" fill="url(#cloudGradient)"/>
  <ellipse cx="280" cy="225" rx="70" ry="20" fill="url(#cloudGradient)"/>
  <ellipse cx="350" cy="235" rx="60" ry="25" fill="url(#cloudGradient)"/>
  <ellipse cx="50" cy="240" rx="50" ry="15" fill="url(#cloudGradient)"/>
  
  <!-- Person on summit -->
  <g transform="translate(195,110)">
    <!-- Body -->
    <ellipse cx="5" cy="15" rx="4" ry="8" fill="#2196F3"/>
    <!-- Head -->
    <circle cx="5" cy="5" r="3" fill="#FFDBCB"/>
    <!-- Arms -->
    <line x1="1" y1="12" x2="-2" y2="18" stroke="#2196F3" stroke-width="2"/>
    <line x1="9" y1="12" x2="12" y2="18" stroke="#2196F3" stroke-width="2"/>
    <!-- Legs -->
    <line x1="3" y1="23" x2="1" y2="30" stroke="#424242" stroke-width="2"/>
    <line x1="7" y1="23" x2="9" y2="30" stroke="#424242" stroke-width="2"/>
    <!-- Jacket flowing in wind -->
    <path d="M1,15 Q-5,20 -8,25 Q-6,28 -2,25" fill="#1976D2" opacity="0.7"/>
  </g>
  
  <!-- Wind effect -->
  <path d="M180,100 Q190,105 200,100 Q210,95 220,100" stroke="#FFFFFF" stroke-width="1" opacity="0.5" fill="none"/>
  <path d="M175,95 Q185,100 195,95 Q205,90 215,95" stroke="#FFFFFF" stroke-width="1" opacity="0.3" fill="none"/>
</svg>