<svg viewBox="0 0 3840 2160" xmlns="http://www.w3.org/2000/svg">
  <defs>
    <!-- Sky and lighting gradients -->
    <linearGradient id="skyGradient" x1="0%" y1="0%" x2="0%" y2="100%">
      <stop offset="0%" style="stop-color:#87CEEB;stop-opacity:1" />
      <stop offset="40%" style="stop-color:#B0E0E6;stop-opacity:1" />
      <stop offset="80%" style="stop-color:#E0F6FF;stop-opacity:1" />
      <stop offset="100%" style="stop-color:#F0F8FF;stop-opacity:1" />
    </linearGradient>
    
    <!-- Ground and market area gradients -->
    <linearGradient id="groundGradient" x1="0%" y1="0%" x2="0%" y2="100%">
      <stop offset="0%" style="stop-color:#DEB887;stop-opacity:1" />
      <stop offset="50%" style="stop-color:#D2B48C;stop-opacity:1" />
      <stop offset="100%" style="stop-color:#BC9A6A;stop-opacity:1" />
    </linearGradient>
    
    <!-- Market stall gradients -->
    <linearGradient id="stallGradient" x1="0%" y1="0%" x2="0%" y2="100%">
      <stop offset="0%" style="stop-color:#F5DEB3;stop-opacity:1" />
      <stop offset="50%" style="stop-color:#DEB887;stop-opacity:1" />
      <stop offset="100%" style="stop-color:#D2B48C;stop-opacity:1" />
    </linearGradient>
    
    <!-- Fabric and textile gradients -->
    <linearGradient id="fabricRed" x1="0%" y1="0%" x2="100%" y2="100%">
      <stop offset="0%" style="stop-color:#FF6B6B;stop-opacity:1" />
      <stop offset="50%" style="stop-color:#FF5252;stop-opacity:1" />
      <stop offset="100%" style="stop-color:#E53935;stop-opacity:1" />
    </linearGradient>
    
    <linearGradient id="fabricBlue" x1="0%" y1="0%" x2="100%" y2="100%">
      <stop offset="0%" style="stop-color:#4FC3F7;stop-opacity:1" />
      <stop offset="50%" style="stop-color:#29B6F6;stop-opacity:1" />
      <stop offset="100%" style="stop-color:#0288D1;stop-opacity:1" />
    </linearGradient>
    
    <linearGradient id="fabricGreen" x1="0%" y1="0%" x2="100%" y2="100%">
      <stop offset="0%" style="stop-color:#81C784;stop-opacity:1" />
      <stop offset="50%" style="stop-color:#66BB6A;stop-opacity:1" />
      <stop offset="100%" style="stop-color:#4CAF50;stop-opacity:1" />
    </linearGradient>
    
    <!-- People skin tones -->
    <linearGradient id="skinTone1" x1="0%" y1="0%" x2="0%" y2="100%">
      <stop offset="0%" style="stop-color:#FDBCB4;stop-opacity:1" />
      <stop offset="100%" style="stop-color:#F1A899;stop-opacity:1" />
    </linearGradient>
    
    <linearGradient id="skinTone2" x1="0%" y1="0%" x2="0%" y2="100%">
      <stop offset="0%" style="stop-color:#E8B4A0;stop-opacity:1" />
      <stop offset="100%" style="stop-color:#D4A574;stop-opacity:1" />
    </linearGradient>
    
    <!-- Clothing gradients -->
    <linearGradient id="traditionalClothing" x1="0%" y1="0%" x2="100%" y2="100%">
      <stop offset="0%" style="stop-color:#8E24AA;stop-opacity:1" />
      <stop offset="33%" style="stop-color:#7B1FA2;stop-opacity:1" />
      <stop offset="66%" style="stop-color:#6A1B9A;stop-opacity:1" />
      <stop offset="100%" style="stop-color:#4A148C;stop-opacity:1" />
    </linearGradient>
    
    <!-- Shadow and depth filters -->
    <filter id="softShadow" x="-50%" y="-50%" width="200%" height="200%">
      <feDropShadow dx="3" dy="6" stdDeviation="4" flood-color="#8B4513" flood-opacity="0.3"/>
    </filter>
    
    <filter id="warmLight" x="-50%" y="-50%" width="200%" height="200%">
      <feGaussianBlur in="SourceGraphic" stdDeviation="2"/>
      <feColorMatrix values="1.1 0.1 0.1 0 0
                             0.1 1.1 0.1 0 0
                             0.1 0.1 1.2 0 0
                             0 0 0 1 0"/>
    </filter>
  </defs>
  
  <!-- Sky background -->
  <rect width="3840" height="1200" fill="url(#skyGradient)"/>
  
  <!-- Mountains in background -->
  <path d="M0,800 Q400,600 800,700 Q1200,500 1600,650 Q2000,400 2400,600 Q2800,500 3200,650 Q3600,550 3840,700 L3840,1200 L0,1200 Z" fill="#8FBC8F" opacity="0.7"/>
  <path d="M0,900 Q600,700 1200,800 Q1800,600 2400,750 Q3000,650 3840,800 L3840,1200 L0,1200 Z" fill="#9ACD32" opacity="0.6"/>
  
  <!-- Ground/market area -->
  <rect x="0" y="1200" width="3840" height="960" fill="url(#groundGradient)"/>
  
  <!-- Market stalls and structures -->
  
  <!-- Left side market stalls -->
  <g transform="translate(200,1300)">
    <!-- Stall structure -->
    <rect x="0" y="0" width="400" height="300" fill="url(#stallGradient)" filter="url(#softShadow)"/>
    <polygon points="0,0 400,0 350,100 50,100" fill="#8B4513"/>
    
    <!-- Fabric displays -->
    <rect x="20" y="120" width="80" height="150" fill="url(#fabricRed)" opacity="0.9"/>
    <rect x="120" y="120" width="80" height="150" fill="url(#fabricBlue)" opacity="0.9"/>
    <rect x="220" y="120" width="80" height="150" fill="url(#fabricGreen)" opacity="0.9"/>
    <rect x="320" y="120" width="60" height="150" fill="url(#traditionalClothing)" opacity="0.9"/>
    
    <!-- Hanging textiles -->
    <rect x="50" y="50" width="300" height="60" fill="url(#fabricRed)" opacity="0.7"/>
    <g stroke="#8B4513" stroke-width="2">
      <line x1="50" y1="50" x2="50" y2="30"/>
      <line x1="150" y1="50" x2="150" y2="30"/>
      <line x1="250" y1="50" x2="250" y2="30"/>
      <line x1="350" y1="50" x2="350" y2="30"/>
    </g>
  </g>
  
  <!-- Center market area -->
  <g transform="translate(800,1250)">
    <!-- Large central stall -->
    <rect x="0" y="0" width="600" height="400" fill="url(#stallGradient)" filter="url(#softShadow)"/>
    <polygon points="0,0 600,0 550,120 50,120" fill="#A0522D"/>
    
    <!-- Produce displays -->
    <g transform="translate(50,150)">
      <!-- Baskets of goods -->
      <ellipse cx="80" cy="100" rx="60" ry="30" fill="#8B4513"/>
      <ellipse cx="80" cy="90" rx="55" ry="25" fill="#DEB887"/>
      <!-- Vegetables/fruits -->
      <circle cx="60" cy="85" r="8" fill="#FF6347"/>
      <circle cx="80" cy="80" r="9" fill="#32CD32"/>
      <circle cx="100" cy="85" r="7" fill="#FFD700"/>
      <circle cx="70" cy="95" r="6" fill="#FF4500"/>
      <circle cx="90" cy="90" r="8" fill="#228B22"/>
      
      <ellipse cx="200" cy="100" rx="60" ry="30" fill="#8B4513"/>
      <ellipse cx="200" cy="90" rx="55" ry="25" fill="#DEB887"/>
      <circle cx="180" cy="85" r="8" fill="#8A2BE2"/>
      <circle cx="200" cy="80" r="9" fill="#FF1493"/>
      <circle cx="220" cy="85" r="7" fill="#00CED1"/>
      
      <ellipse cx="320" cy="100" rx="60" ry="30" fill="#8B4513"/>
      <ellipse cx="320" cy="90" rx="55" ry="25" fill="#DEB887"/>
      <circle cx="300" cy="85" r="8" fill="#FFA500"/>
      <circle cx="320" cy="80" r="9" fill="#DC143C"/>
      <circle cx="340" cy="85" r="7" fill="#9ACD32"/>
    </g>
    
    <!-- Hanging items -->
    <g stroke="#654321" stroke-width="3" fill="none">
      <path d="M100,120 Q120,140 140,120"/>
      <path d="M200,120 Q220,140 240,120"/>
      <path d="M300,120 Q320,140 340,120"/>
      <path d="M400,120 Q420,140 440,120"/>
    </g>
  </g>
  
  <!-- Right side stalls -->
  <g transform="translate(1600,1300)">
    <rect x="0" y="0" width="350" height="280" fill="url(#stallGradient)" filter="url(#softShadow)"/>
    <polygon points="0,0 350,0 320,100 30,100" fill="#8B4513"/>
    
    <!-- Handicrafts display -->
    <g transform="translate(30,130)">
      <!-- Pottery -->
      <ellipse cx="50" cy="80" rx="25" ry="15" fill="#8B4513"/>
      <path d="M25,80 Q25,60 35,50 L65,50 Q75,60 75,80" fill="#CD853F"/>
      
      <ellipse cx="120" cy="80" rx="25" ry="15" fill="#8B4513"/>
      <path d="M95,80 Q95,60 105,50 L135,50 Q145,60 145,80" fill="#CD853F"/>
      
      <!-- Woven items -->
      <rect x="180" y="60" width="60" height="40" fill="url(#traditionalClothing)" opacity="0.8"/>
      <rect x="250" y="60" width="60" height="40" fill="url(#fabricBlue)" opacity="0.8"/>
      
      <!-- Traditional patterns -->
      <g stroke="#FFD700" stroke-width="1" opacity="0.8">
        <path d="M185,70 Q200,65 215,70 Q230,75 235,70"/>
        <path d="M185,85 Q200,80 215,85 Q230,90 235,85"/>
        <path d="M255,70 Q270,65 285,70 Q300,75 305,70"/>
        <path d="M255,85 Q270,80 285,85 Q300,90 305,85"/>
      </g>
    </g>
  </g>
  
  <!-- People - Local vendors and tourists -->
  
  <!-- Local H'Mông vendor (left) -->
  <g transform="translate(300,1450)">
    <!-- Body -->
    <ellipse cx="0" cy="50" rx="25" ry="60" fill="url(#traditionalClothing)"/>
    
    <!-- Head -->
    <circle cx="0" cy="-20" r="20" fill="url(#skinTone2)"/>
    
    <!-- Traditional headwear -->
    <ellipse cx="0" cy="-30" rx="25" ry="15" fill="#2E2E2E"/>
    <rect x="-20" y="-35" width="40" height="10" fill="url(#traditionalClothing)"/>
    
    <!-- Arms -->
    <ellipse cx="-35" cy="20" rx="12" ry="30" fill="url(#skinTone2)" transform="rotate(-20)"/>
    <ellipse cx="35" cy="20" rx="12" ry="30" fill="url(#skinTone2)" transform="rotate(20)"/>
    
    <!-- Traditional clothing details -->
    <g stroke="#FFD700" stroke-width="2" opacity="0.8">
      <path d="M-20,10 Q0,5 20,10"/>
      <path d="M-20,30 Q0,25 20,30"/>
      <path d="M-20,50 Q0,45 20,50"/>
    </g>
    
    <!-- Legs -->
    <ellipse cx="-12" cy="120" rx="10" ry="40" fill="#2E2E2E"/>
    <ellipse cx="12" cy="120" rx="10" ry="40" fill="#2E2E2E"/>
  </g>
  
  <!-- Tourist family (center) -->
  <g transform="translate(1000,1480)">
    <!-- Adult tourist -->
    <g transform="translate(0,0)">
      <ellipse cx="0" cy="40" rx="22" ry="50" fill="#4FC3F7"/>
      <circle cx="0" cy="-15" r="18" fill="url(#skinTone1)"/>
      <ellipse cx="-30" cy="15" rx="10" ry="25" fill="url(#skinTone1)" transform="rotate(-15)"/>
      <ellipse cx="30" cy="15" rx="10" ry="25" fill="url(#skinTone1)" transform="rotate(15)"/>
      <ellipse cx="-10" cy="100" rx="8" ry="30" fill="#2E2E2E"/>
      <ellipse cx="10" cy="100" rx="8" ry="30" fill="#2E2E2E"/>
      
      <!-- Camera -->
      <rect x="25" y="10" width="15" height="10" fill="#2E2E2E" rx="2"/>
      <circle cx="32" cy="15" r="4" fill="#4FC3F7"/>
    </g>
    
    <!-- Child tourist -->
    <g transform="translate(60,20)">
      <ellipse cx="0" cy="30" rx="15" ry="35" fill="#FF6B6B"/>
      <circle cx="0" cy="-10" r="12" fill="url(#skinTone1)"/>
      <ellipse cx="-20" cy="10" rx="8" ry="18" fill="url(#skinTone1)" transform="rotate(-10)"/>
      <ellipse cx="20" cy="10" rx="8" ry="18" fill="url(#skinTone1)" transform="rotate(10)"/>
      <ellipse cx="-6" cy="70" rx="6" ry="20" fill="#2E2E2E"/>
      <ellipse cx="6" cy="70" rx="6" ry="20" fill="#2E2E2E"/>
    </g>
  </g>
  
  <!-- Local vendor (right) -->
  <g transform="translate(1700,1460)">
    <ellipse cx="0" cy="45" rx="23" ry="55" fill="url(#fabricGreen)"/>
    <circle cx="0" cy="-18" r="19" fill="url(#skinTone2)"/>
    
    <!-- Traditional hat -->
    <ellipse cx="0" cy="-28" rx="30" ry="12" fill="#8B4513"/>
    <ellipse cx="0" cy="-30" rx="25" ry="8" fill="#DEB887"/>
    
    <!-- Arms holding items -->
    <ellipse cx="-32" cy="18" rx="11" ry="28" fill="url(#skinTone2)" transform="rotate(-25)"/>
    <ellipse cx="32" cy="18" rx="11" ry="28" fill="url(#skinTone2)" transform="rotate(25)"/>
    
    <!-- Basket in hands -->
    <ellipse cx="-40" cy="35" rx="15" ry="8" fill="#8B4513"/>
    <ellipse cx="-40" cy="32" rx="12" ry="6" fill="#DEB887"/>
    
    <!-- Legs -->
    <ellipse cx="-11" cy="115" rx="9" ry="35" fill="#2E2E2E"/>
    <ellipse cx="11" cy="115" rx="9" ry="35" fill="#2E2E2E"/>
  </g>
  
  <!-- Another tourist couple (background) -->
  <g transform="translate(1300,1500)" opacity="0.8">
    <!-- Tourist 1 -->
    <g transform="translate(0,0)">
      <ellipse cx="0" cy="35" rx="18" ry="40" fill="#81C784"/>
      <circle cx="0" cy="-12" r="15" fill="url(#skinTone1)"/>
      <ellipse cx="-25" cy="12" rx="8" ry="20" fill="url(#skinTone1)" transform="rotate(-20)"/>
      <ellipse cx="25" cy="12" rx="8" ry="20" fill="url(#skinTone1)" transform="rotate(20)"/>
      <ellipse cx="-8" cy="85" rx="7" ry="25" fill="#2E2E2E"/>
      <ellipse cx="8" cy="85" rx="7" ry="25" fill="#2E2E2E"/>
    </g>
    
    <!-- Tourist 2 -->
    <g transform="translate(50,0)">
      <ellipse cx="0" cy="35" rx="18" ry="40" fill="#FFB74D"/>
      <circle cx="0" cy="-12" r="15" fill="url(#skinTone1)"/>
      <ellipse cx="-25" cy="12" rx="8" ry="20" fill="url(#skinTone1)" transform="rotate(-15)"/>
      <ellipse cx="25" cy="12" rx="8" ry="20" fill="url(#skinTone1)" transform="rotate(15)"/>
      <ellipse cx="-8" cy="85" rx="7" ry="25" fill="#2E2E2E"/>
      <ellipse cx="8" cy="85" rx="7" ry="25" fill="#2E2E2E"/>
    </g>
  </g>
  
  <!-- Market atmosphere elements -->
  
  <!-- Birds in sky -->
  <g stroke="#2E2E2E" stroke-width="2" fill="none" opacity="0.6">
    <path d="M500,300 Q510,295 520,300 Q530,305 540,300"/>
    <path d="M1200,250 Q1210,245 1220,250 Q1230,255 1240,250"/>
    <path d="M2800,280 Q2810,275 2820,280 Q2830,285 2840,280"/>
  </g>
  
  <!-- Clouds -->
  <g fill="#FFFFFF" opacity="0.7">
    <ellipse cx="600" cy="200" rx="80" ry="30"/>
    <ellipse cx="650" cy="190" rx="60" ry="25"/>
    <ellipse cx="580" cy="190" rx="50" ry="20"/>
    
    <ellipse cx="2200" cy="150" rx="100" ry="40"/>
    <ellipse cx="2260" cy="140" rx="70" ry="30"/>
    <ellipse cx="2140" cy="140" rx="60" ry="25"/>
  </g>
  
  <!-- Market signs and banners -->
  <g transform="translate(900,1100)">
    <rect x="0" y="0" width="200" height="80" fill="url(#fabricRed)" opacity="0.8" rx="10"/>
    <g stroke="#FFFFFF" stroke-width="3" opacity="0.9">
      <line x1="20" y1="25" x2="180" y2="25"/>
      <line x1="20" y1="40" x2="160" y2="40"/>
      <line x1="20" y1="55" x2="170" y2="55"/>
    </g>
    <!-- Support poles -->
    <rect x="-10" y="80" width="8" height="100" fill="#8B4513"/>
    <rect x="202" y="80" width="8" height="100" fill="#8B4513"/>
  </g>
  
  <!-- Traditional decorative elements -->
  <g transform="translate(1500,1150)" opacity="0.8">
    <rect x="0" y="0" width="150" height="60" fill="url(#traditionalClothing)" rx="8"/>
    <g stroke="#FFD700" stroke-width="2" fill="none">
      <path d="M15,15 Q35,10 55,15 Q75,20 95,15 Q115,10 135,15"/>
      <path d="M15,30 Q35,25 55,30 Q75,35 95,30 Q115,25 135,30"/>
      <path d="M15,45 Q35,40 55,45 Q75,50 95,45 Q115,40 135,45"/>
    </g>
  </g>
  
  <!-- Ground details - scattered items -->
  <g opacity="0.6">
    <!-- Fallen leaves -->
    <ellipse cx="400" cy="1580" rx="8" ry="4" fill="#8B4513" transform="rotate(45)"/>
    <ellipse cx="800" cy="1620" rx="6" ry="3" fill="#A0522D" transform="rotate(-30)"/>
    <ellipse cx="1600" cy="1590" rx="7" ry="4" fill="#8B4513" transform="rotate(60)"/>
    
    <!-- Small stones -->
    <circle cx="600" cy="1610" r="4" fill="#696969"/>
    <circle cx="1200" cy="1580" r="3" fill="#778899"/>
    <circle cx="2000" cy="1620" r="5" fill="#696969"/>
  </g>
  
  <!-- Warm lighting overlay -->
  <rect width="3840" height="2160" fill="url(#skyGradient)" opacity="0.1" filter="url(#warmLight)"/>
  
  <!-- Interaction indicators -->
  <g opacity="0.7">
    <!-- Pointing gestures and conversation bubbles -->
    <ellipse cx="1050" cy="1420" rx="30" ry="15" fill="#FFFFFF" opacity="0.8"/>
    <path d="M1040,1435 L1035,1445 L1045,1440 Z" fill="#FFFFFF" opacity="0.8"/>
    
    <ellipse cx="1750" cy="1400" rx="35" ry="18" fill="#FFFFFF" opacity="0.8"/>
    <path d="M1740,1418 L1735,1428 L1745,1423 Z" fill="#FFFFFF" opacity="0.8"/>
  </g>
</svg>