<svg viewBox="0 0 400 300" xmlns="http://www.w3.org/2000/svg">
  <defs>
    <linearGradient id="woodTable" x1="0%" y1="0%" x2="100%" y2="0%">
      <stop offset="0%" style="stop-color:#8D6E63;stop-opacity:1" />
      <stop offset="100%" style="stop-color:#6D4C41;stop-opacity:1" />
    </linearGradient>
    <radialGradient id="steamGradient" cx="50%" cy="50%" r="50%">
      <stop offset="0%" style="stop-color:#FFFFFF;stop-opacity:0.8" />
      <stop offset="100%" style="stop-color:#E0E0E0;stop-opacity:0.2" />
    </radialGradient>
  </defs>
  
  <!-- Background - traditional kitchen -->
  <rect width="400" height="300" fill="#5D4037"/>
  
  <!-- Wooden walls -->
  <rect x="0" y="0" width="400" height="100" fill="#8D6E63"/>
  <line x1="0" y1="30" x2="400" y2="30" stroke="#6D4C41" stroke-width="2"/>
  <line x1="0" y1="60" x2="400" y2="60" stroke="#6D4C41" stroke-width="2"/>
  
  <!-- Cooking table/workspace -->
  <ellipse cx="200" cy="200" rx="120" ry="40" fill="url(#woodTable)"/>
  
  <!-- Traditional ingredients on table -->
  <!-- Rice/flour -->
  <ellipse cx="150" cy="190" rx="15" ry="8" fill="#FFF8E1"/>
  <ellipse cx="150" cy="188" rx="12" ry="6" fill="#FFFFFF"/>
  
  <!-- Vegetables -->
  <ellipse cx="180" cy="195" rx="8" ry="5" fill="#4CAF50"/>
  <ellipse cx="190" cy="192" rx="6" ry="4" fill="#2E7D32"/>
  
  <!-- Meat/protein -->
  <rect x="220" y="185" width="12" height="8" fill="#8D6E63" rx="2"/>
  
  <!-- Spices and herbs -->
  <circle cx="250" cy="190" r="4" fill="#FF9800"/>
  <circle cx="260" cy="188" r="3" fill="#F44336"/>
  <ellipse cx="270" cy="192" rx="5" ry="3" fill="#4CAF50"/>
  
  <!-- Cooking utensils -->
  <!-- Wooden spoon -->
  <ellipse cx="200" cy="180" rx="2" ry="8" fill="#8D6E63"/>
  <ellipse cx="200" cy="172" rx="3" ry="2" fill="#A1887F"/>
  
  <!-- Bamboo steamer -->
  <ellipse cx="320" cy="195" rx="18" ry="10" fill="#8D6E63"/>
  <ellipse cx="320" cy="193" rx="15" ry="8" fill="#A1887F"/>
  <!-- Steam rising -->
  <ellipse cx="320" cy="185" rx="8" ry="4" fill="url(#steamGradient)"/>
  <ellipse cx="318" cy="175" rx="6" ry="3" fill="url(#steamGradient)"/>
  
  <!-- H'Mong chef/instructor -->
  <g transform="translate(160,150)">
    <circle cx="0" cy="-15" r="5" fill="#FFDBCB"/>
    <rect x="-8" y="-8" width="16" height="20" fill="#1A237E"/>
    <rect x="-10" y="12" width="20" height="15" fill="#4A148C"/>
    <!-- Traditional headwrap -->
    <ellipse cx="0" cy="-17" rx="7" ry="3" fill="#212121"/>
    <!-- Hands working -->
    <circle cx="-8" cy="5" r="2" fill="#FFDBCB"/>
    <circle cx="8" cy="3" r="2" fill="#FFDBCB"/>
  </g>
  
  <!-- Tourist learning -->
  <g transform="translate(240,155)">
    <circle cx="0" cy="-12" r="4" fill="#FFDBCB"/>
    <rect x="-6" y="-6" width="12" height="15" fill="#2196F3"/>
    <rect x="-7" y="9" width="14" height="12" fill="#424242"/>
    <!-- Hands learning -->
    <circle cx="-6" cy="2" r="2" fill="#FFDBCB"/>
    <circle cx="6" cy="4" r="2" fill="#FFDBCB"/>
  </g>
  
  <!-- Food being prepared -->
  <!-- Dumplings/bánh being made -->
  <ellipse cx="180" cy="205" rx="4" ry="3" fill="#FFF8E1"/>
  <ellipse cx="190" cy="208" rx="4" ry="3" fill="#FFF8E1"/>
  <ellipse cx="200" cy="205" rx="4" ry="3" fill="#FFF8E1"/>
  <ellipse cx="210" cy="207" rx="4" ry="3" fill="#FFF8E1"/>
  
  <!-- Traditional bowls -->
  <ellipse cx="130" cy="200" rx="8" ry="4" fill="#8D6E63"/>
  <ellipse cx="130" cy="198" rx="6" ry="3" fill="#A1887F"/>
  
  <ellipse cx="280" cy="205" rx="10" ry="5" fill="#6D4C41"/>
  <ellipse cx="280" cy="203" rx="8" ry="4" fill="#8D6E63"/>
  
  <!-- Hanging traditional items -->
  <line x1="100" y1="50" x2="100" y2="80" stroke="#8D6E63" stroke-width="2"/>
  <ellipse cx="100" cy="85" rx="6" ry="10" fill="#4A148C"/>
  
  <line x1="300" y1="40" x2="300" y2="70" stroke="#8D6E63" stroke-width="2"/>
  <rect x="295" y="70" width="10" height="8" fill="#E91E63"/>
  
  <!-- Floor -->
  <rect x="0" y="250" width="400" height="50" fill="#6D4C41"/>
  <line x1="0" y1="270" x2="400" y2="270" stroke="#5D4037" stroke-width="2"/>
  
  <!-- Warm cooking atmosphere -->
  <ellipse cx="200" cy="180" rx="100" ry="50" fill="#FFC107" opacity="0.1"/>
</svg>