<svg viewBox="0 0 400 300" xmlns="http://www.w3.org/2000/svg">
  <defs>
    <linearGradient id="skyGradient3" x1="0%" y1="0%" x2="0%" y2="100%">
      <stop offset="0%" style="stop-color:#E3F2FD;stop-opacity:1" />
      <stop offset="100%" style="stop-color:#BBDEFB;stop-opacity:1" />
    </linearGradient>
    <pattern id="fabricPattern" patternUnits="userSpaceOnUse" width="8" height="8">
      <rect width="8" height="8" fill="#E91E63"/>
      <rect x="2" y="2" width="2" height="2" fill="#AD1457"/>
      <rect x="6" y="6" width="2" height="2" fill="#C2185B"/>
    </pattern>
  </defs>
  
  <!-- Sky -->
  <rect width="400" height="300" fill="url(#skyGradient3)"/>
  
  <!-- Mountains in background -->
  <path d="M0,150 Q100,130 200,140 Q300,135 400,145 L400,300 L0,300 Z" fill="#4CAF50" opacity="0.7"/>
  
  <!-- Market stalls -->
  <!-- Stall 1 -->
  <rect x="50" y="180" width="80" height="60" fill="#8D6E63"/>
  <polygon points="50,180 90,160 130,180" fill="#D7CCC8"/>
  
  <!-- Stall 2 -->
  <rect x="150" y="185" width="70" height="55" fill="#795548"/>
  <polygon points="150,185 185,165 220,185" fill="#BCAAA4"/>
  
  <!-- Stall 3 -->
  <rect x="250" y="190" width="75" height="50" fill="#6D4C41"/>
  <polygon points="250,190 287.5,170 325,190" fill="#A1887F"/>
  
  <!-- Market goods -->
  <!-- Vegetables and fruits -->
  <ellipse cx="70" cy="220" rx="15" ry="8" fill="#4CAF50"/>
  <ellipse cx="90" cy="215" rx="12" ry="6" fill="#FF9800"/>
  <ellipse cx="110" cy="225" rx="10" ry="5" fill="#F44336"/>
  
  <!-- Traditional textiles -->
  <rect x="160" y="210" width="25" height="15" fill="url(#fabricPattern)"/>
  <rect x="190" y="205" width="20" ry="12" fill="#9C27B0"/>
  
  <!-- Baskets -->
  <ellipse cx="270" cy="220" rx="18" ry="10" fill="#8D6E63"/>
  <ellipse cx="300" cy="215" rx="15" ry="8" fill="#A1887F"/>
  
  <!-- H'Mong people -->
  <!-- Woman vendor 1 -->
  <g transform="translate(80,200)">
    <circle cx="0" cy="-10" r="4" fill="#FFDBCB"/>
    <rect x="-6" y="-5" width="12" height="15" fill="#1A237E"/>
    <rect x="-8" y="10" width="16" height="12" fill="#E91E63"/>
    <!-- Traditional hat -->
    <ellipse cx="0" cy="-12" rx="6" ry="2" fill="#424242"/>
  </g>
  
  <!-- Woman vendor 2 -->
  <g transform="translate(180,205)">
    <circle cx="0" cy="-8" r="3.5" fill="#FFDBCB"/>
    <rect x="-5" y="-3" width="10" height="12" fill="#4A148C"/>
    <rect x="-7" y="9" width="14" height="10" fill="#AD1457"/>
    <!-- Traditional headwrap -->
    <ellipse cx="0" cy="-10" rx="5" ry="3" fill="#212121"/>
  </g>
  
  <!-- Customer -->
  <g transform="translate(120,210)">
    <circle cx="0" cy="-8" r="3" fill="#FFDBCB"/>
    <rect x="-4" y="-3" width="8" height="10" fill="#2196F3"/>
    <rect x="-5" y="7" width="10" height="8" fill="#424242"/>
  </g>
  
  <!-- Market atmosphere -->
  <!-- Hanging items -->
  <line x1="60" y1="180" x2="60" y2="195" stroke="#8D6E63" stroke-width="2"/>
  <ellipse cx="60" cy="198" rx="4" ry="6" fill="#FF9800"/>
  
  <line x1="200" y1="185" x2="200" y2="200" stroke="#795548" stroke-width="2"/>
  <rect x="196" y="200" width="8" height="10" fill="url(#fabricPattern)"/>
  
  <!-- Ground -->
  <ellipse cx="200" cy="280" rx="200" ry="20" fill="#8D6E63" opacity="0.3"/>
</svg>