<svg viewBox="0 0 400 300" xmlns="http://www.w3.org/2000/svg">
  <defs>
    <linearGradient id="skyGradient2" x1="0%" y1="0%" x2="0%" y2="100%">
      <stop offset="0%" style="stop-color:#87CEEB;stop-opacity:1" />
      <stop offset="100%" style="stop-color:#B0E0E6;stop-opacity:1" />
    </linearGradient>
    <linearGradient id="forestGradient" x1="0%" y1="0%" x2="0%" y2="100%">
      <stop offset="0%" style="stop-color:#4CAF50;stop-opacity:1" />
      <stop offset="100%" style="stop-color:#2E7D32;stop-opacity:1" />
    </linearGradient>
    <linearGradient id="roadGradient" x1="0%" y1="0%" x2="100%" y2="0%">
      <stop offset="0%" style="stop-color:#616161;stop-opacity:1" />
      <stop offset="50%" style="stop-color:#757575;stop-opacity:1" />
      <stop offset="100%" style="stop-color:#616161;stop-opacity:1" />
    </linearGradient>
  </defs>
  
  <!-- Sky -->
  <rect width="400" height="300" fill="url(#skyGradient2)"/>
  
  <!-- Dragon spine mountain ridge in background -->
  <path d="M50,120 Q80,100 110,110 Q140,95 170,105 Q200,90 230,100 Q260,85 290,95 Q320,80 350,90 L400,90 L400,300 L0,300 Z" fill="#388E3C" opacity="0.8"/>
  
  <!-- Forest on both sides -->
  <ellipse cx="80" cy="200" rx="60" ry="40" fill="url(#forestGradient)"/>
  <ellipse cx="150" cy="210" rx="50" ry="35" fill="#4CAF50"/>
  <ellipse cx="320" cy="190" rx="70" ry="45" fill="url(#forestGradient)"/>
  <ellipse cx="380" cy="200" rx="40" ry="30" fill="#2E7D32"/>
  <ellipse cx="20" cy="220" rx="45" ry="25" fill="#4CAF50"/>
  
  <!-- Winding road -->
  <path d="M0,250 Q100,240 200,245 Q300,250 400,240" stroke="url(#roadGradient)" stroke-width="25" fill="none"/>
  <path d="M0,250 Q100,240 200,245 Q300,250 400,240" stroke="#FFFFFF" stroke-width="2" fill="none" stroke-dasharray="10,15"/>
  
  <!-- Two people on motorbike -->
  <g transform="translate(180,235)">
    <!-- Motorbike -->
    <ellipse cx="0" cy="8" rx="12" ry="4" fill="#424242"/>
    <circle cx="-8" cy="8" r="6" fill="#212121"/>
    <circle cx="8" cy="8" r="6" fill="#212121"/>
    <rect x="-2" y="0" width="4" height="8" fill="#FF5722"/>
    
    <!-- Driver -->
    <circle cx="-3" cy="-5" r="2.5" fill="#FFDBCB"/>
    <ellipse cx="-3" cy="2" rx="3" ry="6" fill="#1976D2"/>
    
    <!-- Passenger -->
    <circle cx="3" cy="-3" r="2" fill="#FFDBCB"/>
    <ellipse cx="3" cy="3" rx="2.5" ry="5" fill="#E91E63"/>
  </g>
  
  <!-- Trees along the road -->
  <g transform="translate(120,200)">
    <rect x="0" y="15" width="3" height="15" fill="#8D6E63"/>
    <ellipse cx="1.5" cy="12" rx="8" ry="12" fill="#4CAF50"/>
  </g>
  
  <g transform="translate(280,180)">
    <rect x="0" y="20" width="4" height="20" fill="#8D6E63"/>
    <ellipse cx="2" cy="15" rx="10" ry="15" fill="#2E7D32"/>
  </g>
  
  <!-- Dust cloud behind motorbike -->
  <ellipse cx="160" cy="250" rx="15" ry="5" fill="#D7CCC8" opacity="0.6"/>
  <ellipse cx="155" cy="252" rx="10" ry="3" fill="#BCAAA4" opacity="0.4"/>
</svg>