<svg viewBox="0 0 400 300" xmlns="http://www.w3.org/2000/svg">
  <defs>
    <linearGradient id="woodGradient" x1="0%" y1="0%" x2="100%" y2="0%">
      <stop offset="0%" style="stop-color:#8D6E63;stop-opacity:1" />
      <stop offset="100%" style="stop-color:#5D4037;stop-opacity:1" />
    </linearGradient>
    <radialGradient id="fireGradient" cx="50%" cy="50%" r="50%">
      <stop offset="0%" style="stop-color:#FF5722;stop-opacity:1" />
      <stop offset="70%" style="stop-color:#FF9800;stop-opacity:0.8" />
      <stop offset="100%" style="stop-color:#FFC107;stop-opacity:0.3" />
    </radialGradient>
  </defs>
  
  <!-- Interior background -->
  <rect width="400" height="300" fill="#3E2723"/>
  
  <!-- Wooden house structure -->
  <rect x="0" y="0" width="400" height="80" fill="url(#woodGradient)"/>
  <rect x="0" y="250" width="400" height="50" fill="#6D4C41"/>
  
  <!-- Window showing mountains outside -->
  <rect x="320" y="20" width="60" height="40" fill="#81C784"/>
  <path d="M320,40 Q350,35 380,40" stroke="#4CAF50" stroke-width="2" fill="none"/>
  
  <!-- Fire pit in center -->
  <ellipse cx="200" cy="220" rx="25" ry="8" fill="#424242"/>
  <ellipse cx="200" cy="215" rx="15" ry="5" fill="url(#fireGradient)"/>
  
  <!-- Smoke rising -->
  <path d="M200,210 Q205,200 200,190 Q195,180 200,170 Q205,160 200,150" stroke="#9E9E9E" stroke-width="3" fill="none" opacity="0.6"/>
  <path d="M205,205 Q210,195 205,185 Q200,175 205,165" stroke="#BDBDBD" stroke-width="2" fill="none" opacity="0.4"/>
  
  <!-- Tea kettle on fire -->
  <ellipse cx="200" cy="205" rx="12" ry="8" fill="#424242"/>
  <rect x="195" y="200" width="10" height="3" fill="#616161"/>
  <line x1="205" y1="202" x2="210" y2="198" stroke="#424242" stroke-width="2"/>
  
  <!-- People sitting around fire -->
  <!-- Local person 1 -->
  <g transform="translate(160,180)">
    <circle cx="0" cy="-15" r="5" fill="#FFDBCB"/>
    <rect x="-7" y="-8" width="14" height="18" fill="#1A237E"/>
    <rect x="-8" y="10" width="16" height="15" fill="#4A148C"/>
    <!-- Tea cup -->
    <ellipse cx="8" cy="5" rx="3" ry="2" fill="#8D6E63"/>
  </g>
  
  <!-- Tourist 1 -->
  <g transform="translate(240,185)">
    <circle cx="0" cy="-12" r="4" fill="#FFDBCB"/>
    <rect x="-6" y="-6" width="12" height="15" fill="#2196F3"/>
    <rect x="-7" y="9" width="14" height="12" fill="#424242"/>
    <!-- Tea cup -->
    <ellipse cx="-8" cy="3" rx="3" ry="2" fill="#8D6E63"/>
  </g>
  
  <!-- Local person 2 -->
  <g transform="translate(180,200)">
    <circle cx="0" cy="-10" r="4" fill="#FFDBCB"/>
    <rect x="-5" y="-4" width="10" height="12" fill="#4A148C"/>
    <rect x="-6" y="8" width="12" height="10" fill="#E91E63"/>
    <!-- Traditional headwrap -->
    <ellipse cx="0" cy="-12" rx="6" ry="2" fill="#212121"/>
  </g>
  
  <!-- Tourist 2 -->
  <g transform="translate(220,195)">
    <circle cx="0" cy="-8" r="3.5" fill="#FFDBCB"/>
    <rect x="-5" y="-3" width="10" height="11" fill="#4CAF50"/>
    <rect x="-6" y="8" width="12" height="9" fill="#795548"/>
  </g>
  
  <!-- Tea set and accessories -->
  <!-- Tea pot -->
  <ellipse cx="185" cy="230" rx="8" ry="5" fill="#8D6E63"/>
  <ellipse cx="185" cy="228" rx="6" ry="3" fill="#A1887F"/>
  
  <!-- Tea cups -->
  <ellipse cx="170" cy="235" rx="3" ry="2" fill="#6D4C41"/>
  <ellipse cx="200" cy="240" rx="3" ry="2" fill="#6D4C41"/>
  <ellipse cx="230" cy="235" rx="3" ry="2" fill="#6D4C41"/>
  
  <!-- Tea leaves container -->
  <rect x="250" y="225" width="8" height="12" fill="#4CAF50"/>
  <ellipse cx="254" cy="225" rx="4" ry="2" fill="#2E7D32"/>
  
  <!-- Wooden floor planks -->
  <line x1="0" y1="260" x2="400" y2="260" stroke="#5D4037" stroke-width="2"/>
  <line x1="0" y1="280" x2="400" y2="280" stroke="#5D4037" stroke-width="2"/>
  
  <!-- Warm lighting effect -->
  <ellipse cx="200" cy="200" rx="80" ry="60" fill="#FFC107" opacity="0.1"/>
</svg>