<svg viewBox="0 0 3840 2160" xmlns="http://www.w3.org/2000/svg">
  <defs>
    <!-- Digital space gradients -->
    <radialGradient id="digitalSpace" cx="50%" cy="40%" r="80%">
      <stop offset="0%" style="stop-color:#E6E6FA;stop-opacity:1" />
      <stop offset="30%" style="stop-color:#9370DB;stop-opacity:0.8" />
      <stop offset="60%" style="stop-color:#4B0082;stop-opacity:0.6" />
      <stop offset="100%" style="stop-color:#191970;stop-opacity:0.9" />
    </radialGradient>
    
    <!-- Holographic gradients -->
    <linearGradient id="holoGradient" x1="0%" y1="0%" x2="100%" y2="100%">
      <stop offset="0%" style="stop-color:#00FFFF;stop-opacity:0.8" />
      <stop offset="25%" style="stop-color:#0080FF;stop-opacity:0.6" />
      <stop offset="50%" style="stop-color:#8000FF;stop-opacity:0.7" />
      <stop offset="75%" style="stop-color:#FF00FF;stop-opacity:0.6" />
      <stop offset="100%" style="stop-color:#FF0080;stop-opacity:0.8" />
    </linearGradient>
    
    <linearGradient id="holoGradient2" x1="100%" y1="0%" x2="0%" y2="100%">
      <stop offset="0%" style="stop-color:#00FF80;stop-opacity:0.7" />
      <stop offset="33%" style="stop-color:#0080FF;stop-opacity:0.8" />
      <stop offset="66%" style="stop-color:#8000FF;stop-opacity:0.6" />
      <stop offset="100%" style="stop-color:#FF8000;stop-opacity:0.7" />
    </linearGradient>
    
    <!-- AR/VR device gradients -->
    <linearGradient id="deviceGradient" x1="0%" y1="0%" x2="0%" y2="100%">
      <stop offset="0%" style="stop-color:#F0F8FF;stop-opacity:1" />
      <stop offset="50%" style="stop-color:#B0C4DE;stop-opacity:1" />
      <stop offset="100%" style="stop-color:#708090;stop-opacity:1" />
    </linearGradient>
    
    <!-- Floor gradient -->
    <linearGradient id="floorGradient" x1="0%" y1="0%" x2="0%" y2="100%">
      <stop offset="0%" style="stop-color:#2F2F4F;stop-opacity:0.8" />
      <stop offset="50%" style="stop-color:#483D8B;stop-opacity:0.6" />
      <stop offset="100%" style="stop-color:#191970;stop-opacity:0.9" />
    </linearGradient>
    
    <!-- Neon glow effects -->
    <filter id="neonGlow" x="-50%" y="-50%" width="200%" height="200%">
      <feGaussianBlur in="SourceGraphic" stdDeviation="4"/>
      <feColorMatrix values="0.2 0.8 1.5 0 0
                             0.8 0.2 1.2 0 0
                             1.5 1.2 0.2 0 0
                             0 0 0 1 0"/>
    </filter>
    
    <filter id="hologramEffect" x="-50%" y="-50%" width="200%" height="200%">
      <feGaussianBlur in="SourceGraphic" stdDeviation="2"/>
      <feColorMatrix values="1.2 0.3 0.8 0 0
                             0.3 1.5 0.2 0 0
                             0.8 0.2 1.8 0 0
                             0 0 0 0.8 0"/>
    </filter>
    
    <filter id="digitalGlow" x="-50%" y="-50%" width="200%" height="200%">
      <feDropShadow dx="0" dy="0" stdDeviation="6" flood-color="#00FFFF" flood-opacity="0.6"/>
    </filter>
    
    <!-- Animated gradients for dynamic effects -->
    <radialGradient id="pulseGradient" cx="50%" cy="50%" r="50%">
      <stop offset="0%" style="stop-color:#FFFFFF;stop-opacity:0.9">
        <animate attributeName="stop-opacity" values="0.9;0.3;0.9" dur="3s" repeatCount="indefinite"/>
      </stop>
      <stop offset="70%" style="stop-color:#00FFFF;stop-opacity:0.5">
        <animate attributeName="stop-opacity" values="0.5;0.1;0.5" dur="3s" repeatCount="indefinite"/>
      </stop>
      <stop offset="100%" style="stop-color:#0080FF;stop-opacity:0">
        <animate attributeName="stop-opacity" values="0;0.2;0" dur="3s" repeatCount="indefinite"/>
      </stop>
    </radialGradient>
  </defs>
  
  <!-- Background - digital exhibition space -->
  <rect width="3840" height="2160" fill="url(#digitalSpace)"/>
  
  <!-- Floor with digital grid pattern -->
  <rect x="0" y="1400" width="3840" height="760" fill="url(#floorGradient)"/>
  
  <!-- Digital grid lines on floor -->
  <g stroke="#00FFFF" stroke-width="2" opacity="0.4">
    <defs>
      <pattern id="gridPattern" x="0" y="0" width="200" height="200" patternUnits="userSpaceOnUse">
        <path d="M 200 0 L 0 0 0 200" fill="none" stroke="#00FFFF" stroke-width="1" opacity="0.3"/>
      </pattern>
    </defs>
    <rect x="0" y="1400" width="3840" height="760" fill="url(#gridPattern)"/>
  </g>
  
  <!-- Main holographic display panels -->
  
  <!-- Central large hologram - Traditional H'Mông culture -->
  <g transform="translate(1920,800)">
    <!-- Hologram frame -->
    <rect x="-400" y="-200" width="800" height="400" fill="none" stroke="url(#holoGradient)" stroke-width="4" rx="20" filter="url(#neonGlow)"/>
    
    <!-- Holographic content - Traditional pattern -->
    <g opacity="0.8" filter="url(#hologramEffect)">
      <rect x="-380" y="-180" width="760" height="360" fill="url(#holoGradient)" opacity="0.3" rx="15"/>
      
      <!-- Traditional H'Mông geometric patterns in hologram -->
      <g stroke="url(#holoGradient)" stroke-width="3" fill="none" opacity="0.9">
        <path d="M-300,-100 Q-200,-150 -100,-100 Q0,-50 100,-100 Q200,-150 300,-100"/>
        <path d="M-300,0 Q-200,50 -100,0 Q0,50 100,0 Q200,50 300,0"/>
        <path d="M-300,100 Q-200,50 -100,100 Q0,150 100,100 Q200,50 300,100"/>
        
        <!-- Diamond patterns -->
        <polygon points="-150,-50 -100,-100 -50,-50 -100,0" fill="url(#holoGradient2)" opacity="0.6"/>
        <polygon points="50,-50 100,-100 150,-50 100,0" fill="url(#holoGradient2)" opacity="0.6"/>
        <polygon points="-150,50 -100,0 -50,50 -100,100" fill="url(#holoGradient2)" opacity="0.6"/>
        <polygon points="50,50 100,0 150,50 100,100" fill="url(#holoGradient2)" opacity="0.6"/>
      </g>
    </g>
    
    <!-- Hologram projection lines -->
    <g stroke="#00FFFF" stroke-width="1" opacity="0.6">
      <line x1="-400" y1="-200" x2="-450" y2="-250"/>
      <line x1="400" y1="-200" x2="450" y2="-250"/>
      <line x1="-400" y1="200" x2="-450" y2="250"/>
      <line x1="400" y1="200" x2="450" y2="250"/>
    </g>
  </g>
  
  <!-- Side holographic displays -->
  <g transform="translate(600,900)">
    <rect x="-150" y="-100" width="300" height="200" fill="none" stroke="url(#holoGradient2)" stroke-width="3" rx="10" filter="url(#digitalGlow)"/>
    <rect x="-140" y="-90" width="280" height="180" fill="url(#holoGradient2)" opacity="0.4" rx="8"/>
    
    <!-- Traditional costume hologram -->
    <g stroke="url(#holoGradient2)" stroke-width="2" fill="none" opacity="0.8">
      <path d="M-80,-60 Q-60,-80 -40,-60 L40,-60 Q60,-80 80,-60 L80,60 Q60,80 40,60 L-40,60 Q-60,80 -80,60 Z"/>
      <path d="M-60,-40 Q-40,-50 -20,-40 L20,-40 Q40,-50 60,-40"/>
      <path d="M-60,0 Q-40,10 -20,0 L20,0 Q40,10 60,0"/>
      <path d="M-60,40 Q-40,30 -20,40 L20,40 Q40,30 60,40"/>
    </g>
  </g>
  
  <g transform="translate(3240,900)">
    <rect x="-150" y="-100" width="300" height="200" fill="none" stroke="url(#holoGradient)" stroke-width="3" rx="10" filter="url(#digitalGlow)"/>
    <rect x="-140" y="-90" width="280" height="180" fill="url(#holoGradient)" opacity="0.4" rx="8"/>
    
    <!-- Traditional architecture hologram -->
    <g stroke="url(#holoGradient)" stroke-width="2" fill="none" opacity="0.8">
      <path d="M-100,-40 L-60,-70 L60,-70 L100,-40 L100,40 L-100,40 Z"/>
      <path d="M-80,-20 L80,-20"/>
      <path d="M-80,0 L80,0"/>
      <path d="M-80,20 L80,20"/>
      <line x1="-40" y1="-40" x2="-40" y2="40"/>
      <line x1="0" y1="-40" x2="0" y2="40"/>
      <line x1="40" y1="-40" x2="40" y2="40"/>
    </g>
  </g>
  
  <!-- VR/AR devices and users -->
  
  <!-- Person with VR headset -->
  <g transform="translate(1200,1600)">
    <!-- Body -->
    <ellipse cx="0" cy="0" rx="40" ry="80" fill="url(#deviceGradient)" opacity="0.8"/>
    
    <!-- VR Headset -->
    <rect x="-30" y="-100" width="60" height="40" fill="url(#deviceGradient)" rx="20"/>
    <rect x="-25" y="-95" width="50" height="30" fill="#000080" rx="15"/>
    
    <!-- VR controllers -->
    <ellipse cx="-60" cy="-20" rx="8" ry="15" fill="url(#deviceGradient)"/>
    <ellipse cx="60" cy="-20" rx="8" ry="15" fill="url(#deviceGradient)"/>
    
    <!-- Light emanating from headset -->
    <circle cx="0" cy="-80" r="80" fill="url(#pulseGradient)" opacity="0.6"/>
  </g>
  
  <!-- Person with AR glasses -->
  <g transform="translate(2640,1650)">
    <!-- Body -->
    <ellipse cx="0" cy="0" rx="35" ry="70" fill="url(#deviceGradient)" opacity="0.8"/>
    
    <!-- AR Glasses -->
    <rect x="-25" y="-90" width="50" height="15" fill="url(#deviceGradient)" rx="7"/>
    <circle cx="-15" cy="-82" r="8" fill="#00FFFF" opacity="0.6"/>
    <circle cx="15" cy="-82" r="8" fill="#00FFFF" opacity="0.6"/>
    
    <!-- AR interface elements floating around -->
    <g opacity="0.7">
      <rect x="-80" y="-120" width="40" height="20" fill="url(#holoGradient2)" opacity="0.5" rx="5"/>
      <rect x="40" y="-110" width="35" height="15" fill="url(#holoGradient)" opacity="0.5" rx="3"/>
      <circle cx="-60" cy="-60" r="12" fill="url(#holoGradient2)" opacity="0.6"/>
      <circle cx="70" cy="-70" r="10" fill="url(#holoGradient)" opacity="0.6"/>
    </g>
  </g>
  
  <!-- Interactive digital elements floating in space -->
  
  <!-- Floating cultural artifacts -->
  <g transform="translate(800,600)" opacity="0.8">
    <circle cx="0" cy="0" r="60" fill="url(#holoGradient)" opacity="0.4" filter="url(#hologramEffect)"/>
    <g stroke="url(#holoGradient)" stroke-width="2" fill="none">
      <circle cx="0" cy="0" r="40"/>
      <path d="M-30,-30 Q0,-40 30,-30 Q40,0 30,30 Q0,40 -30,30 Q-40,0 -30,-30"/>
    </g>
  </g>
  
  <g transform="translate(3000,500)" opacity="0.8">
    <rect x="-40" y="-40" width="80" height="80" fill="url(#holoGradient2)" opacity="0.4" rx="10" filter="url(#hologramEffect)"/>
    <g stroke="url(#holoGradient2)" stroke-width="2" fill="none">
      <rect x="-30" y="-30" width="60" height="60" rx="5"/>
      <path d="M-20,-20 L20,-20 L20,20 L-20,20 Z"/>
      <line x1="-20" y1="0" x2="20" y2="0"/>
      <line x1="0" y1="-20" x2="0" y2="20"/>
    </g>
  </g>
  
  <!-- Digital information panels -->
  <g transform="translate(400,1200)">
    <rect x="0" y="0" width="200" height="300" fill="url(#holoGradient)" opacity="0.3" rx="10" filter="url(#digitalGlow)"/>
    <rect x="10" y="10" width="180" height="280" fill="none" stroke="url(#holoGradient)" stroke-width="2" rx="8"/>
    
    <!-- Text lines simulation -->
    <g stroke="url(#holoGradient)" stroke-width="2" opacity="0.8">
      <line x1="20" y1="40" x2="180" y2="40"/>
      <line x1="20" y1="60" x2="160" y2="60"/>
      <line x1="20" y1="80" x2="170" y2="80"/>
      <line x1="20" y1="120" x2="180" y2="120"/>
      <line x1="20" y1="140" x2="150" y2="140"/>
      <line x1="20" y1="180" x2="180" y2="180"/>
      <line x1="20" y1="200" x2="140" y2="200"/>
      <line x1="20" y1="240" x2="180" y2="240"/>
      <line x1="20" y1="260" x2="160" y2="260"/>
    </g>
  </g>
  
  <!-- Projection beams and light effects -->
  <g opacity="0.6">
    <!-- Ceiling projectors -->
    <rect x="1800" y="100" width="240" height="60" fill="url(#deviceGradient)" rx="30"/>
    <rect x="1820" y="120" width="200" height="20" fill="#000080" rx="10"/>
    
    <!-- Projection beam -->
    <path d="M1920,160 L1820,700 L2020,700 Z" fill="url(#pulseGradient)" opacity="0.4"/>
    
    <!-- Side projectors -->
    <rect x="200" y="400" width="60" height="120" fill="url(#deviceGradient)" rx="30"/>
    <path d="M260,460 L600,800 L600,920 Z" fill="url(#holoGradient2)" opacity="0.3"/>
    
    <rect x="3580" y="400" width="60" height="120" fill="url(#deviceGradient)" rx="30"/>
    <path d="M3580,460 L3240,800 L3240,920 Z" fill="url(#holoGradient)" opacity="0.3"/>
  </g>
  
  <!-- Ambient digital particles -->
  <g opacity="0.5">
    <circle cx="300" cy="300" r="3" fill="#00FFFF">
      <animate attributeName="cy" values="300;200;300" dur="4s" repeatCount="indefinite"/>
      <animate attributeName="opacity" values="0.5;1;0.5" dur="4s" repeatCount="indefinite"/>
    </circle>
    <circle cx="3500" cy="400" r="4" fill="#FF00FF">
      <animate attributeName="cy" values="400;300;400" dur="5s" repeatCount="indefinite"/>
      <animate attributeName="opacity" values="0.5;1;0.5" dur="5s" repeatCount="indefinite"/>
    </circle>
    <circle cx="1000" cy="200" r="2" fill="#0080FF">
      <animate attributeName="cy" values="200;100;200" dur="3s" repeatCount="indefinite"/>
      <animate attributeName="opacity" values="0.5;1;0.5" dur="3s" repeatCount="indefinite"/>
    </circle>
    <circle cx="2800" cy="250" r="3" fill="#00FF80">
      <animate attributeName="cy" values="250;150;250" dur="6s" repeatCount="indefinite"/>
      <animate attributeName="opacity" values="0.5;1;0.5" dur="6s" repeatCount="indefinite"/>
    </circle>
  </g>
  
  <!-- Overall atmospheric glow -->
  <rect width="3840" height="2160" fill="url(#digitalSpace)" opacity="0.1"/>
  
  <!-- Digital interface elements -->
  <g transform="translate(100,100)" opacity="0.7">
    <rect x="0" y="0" width="150" height="100" fill="url(#holoGradient2)" opacity="0.3" rx="10"/>
    <circle cx="20" cy="20" r="8" fill="#00FFFF"/>
    <rect x="40" y="15" width="80" height="10" fill="url(#holoGradient)" opacity="0.6" rx="5"/>
    <rect x="40" y="35" width="60" height="8" fill="url(#holoGradient)" opacity="0.6" rx="4"/>
    <rect x="40" y="50" width="90" height="8" fill="url(#holoGradient)" opacity="0.6" rx="4"/>
    <rect x="40" y="65" width="70" height="8" fill="url(#holoGradient)" opacity="0.6" rx="4"/>
  </g>
</svg>